<svg width="16" height="16" viewBox="0 0 16 16" fill="none" xmlns="http://www.w3.org/2000/svg">
<path d="M13.656 1H15.968L11.156 5.7656C10.3147 6.5945 9.18105 7.05914 8 7.05914C6.81895 7.05914 5.68531 6.5945 4.844 5.7656L0.0279999 1H2.344L6 4.6184C6.5324 5.14389 7.25035 5.43853 7.9984 5.43853C8.74645 5.43853 9.4644 5.14389 9.9968 4.6184L13.656 1ZM2.316 14.2504H0L4.844 9.456C5.68531 8.6271 6.81895 8.16246 8 8.16246C9.18105 8.16246 10.3147 8.6271 11.156 9.456L16 14.2496H13.684L10 10.6C9.4676 10.0745 8.74965 9.77987 8.0016 9.77987C7.25355 9.77987 6.5356 10.0745 6.0032 10.6L2.316 14.2504Z" fill="#23292F"/>
</svg>
